<svg width="1073" height="1770" viewBox="0 0 1073 1770" fill="none" xmlns="http://www.w3.org/2000/svg">
<path d="M454.02 671.18L386.53 923.01L296.57 1258.79L3.02002 1337.45L160.2 750.86L202.83 739.31L454.02 671.18Z" fill="#A3CFB0" stroke="black" stroke-width="5" stroke-linecap="round" stroke-linejoin="round"/>
<path d="M296.57 1258.79L3.02002 1337.47V1337.45L296.57 1258.79Z" fill="white" stroke="black" stroke-width="5" stroke-linecap="round" stroke-linejoin="round"/>
<path d="M726.37 1688.59L432.8 1767.25L3.02002 1337.47L296.57 1258.79L726.37 1688.59Z" fill="#679392" stroke="black" stroke-width="5" stroke-linecap="round" stroke-linejoin="round"/>
<path d="M296.57 1258.79L3.02 1337.47L3 1337.45H3.02L296.57 1258.79Z" fill="white" stroke="black" stroke-width="5" stroke-linecap="round" stroke-linejoin="round"/>
<path d="M883.42 1102.5L726.37 1688.59L296.57 1258.79L386.53 923.01L386.99 922.89L454.34 671.5L637.71 855.71H637.73L637.81 855.79L851.96 1070.91L883.42 1102.5Z" fill="#ABD5AF" stroke="black" stroke-width="5" stroke-linecap="round" stroke-linejoin="round"/>
<path d="M543.87 335.89L476.04 589L465.19 629.46L171.64 708.11L250.3 414.55L290.75 403.71L543.87 335.89Z" fill="#A3CFB0" stroke="black" stroke-width="5" stroke-linecap="round" stroke-linejoin="round"/>
<path d="M465.59 629.51L465.51 629.78L465.19 629.46L465.59 629.51Z" fill="white" stroke="black" stroke-width="5" stroke-linecap="round" stroke-linejoin="round"/>
<path d="M545.28 337.31V337.33L545.19 337.74L545.09 338.08L477.59 590L477.16 590.12L476.04 589L543.86 335.89L545.28 337.31Z" fill="white" stroke="black" stroke-width="5" stroke-linecap="round" stroke-linejoin="round"/>
<path d="M545.19 337.74L543.87 335.89" stroke="black" stroke-width="5" stroke-linecap="round" stroke-linejoin="round"/>
<path d="M465.51 629.78L454.34 671.5L454.02 671.18L202.83 739.31L171.64 708.11L465.19 629.46L465.51 629.78Z" fill="#679392" stroke="black" stroke-width="5" stroke-linecap="round" stroke-linejoin="round"/>
<path d="M705.02 800.05L703.94 801.94V801.96L680.85 843L680.1 844.35L465.51 629.78L465.58 629.51L523.92 636.48L543.86 638.87L694.72 789.74L705.02 800.05Z" fill="#83AE9C" stroke="black" stroke-width="5" stroke-linecap="round" stroke-linejoin="round"/>
<path d="M680.1 844.35L637.73 855.71H637.71L454.34 671.5L465.51 629.78L680.1 844.35Z" fill="#679392" stroke="black" stroke-width="5" stroke-linecap="round" stroke-linejoin="round"/>
<path d="M680.86 843L680.5 844.35L637.81 855.79L637.73 855.71L680.1 844.35L680.86 843Z" fill="white" stroke="black" stroke-width="5" stroke-linecap="round" stroke-linejoin="round"/>
<path d="M759.15 550.8L758.91 551.65L758.77 550.89L759.15 550.8Z" fill="white" stroke="black" stroke-width="5" stroke-linecap="round" stroke-linejoin="round"/>
<path d="M818.15 633.6L778.38 782.02L759.15 853.76L680.49 844.35L680.85 843L703.94 801.96V801.94L705.02 800.05L764.02 579.87L758.91 551.69V551.65L759.15 550.8L818.15 633.6Z" fill="#83AE9C" stroke="black" stroke-width="5" stroke-linecap="round" stroke-linejoin="round"/>
<path d="M920.33 1014.94L895.41 1059.26L680.49 844.35L759.15 853.76L920.33 1014.94Z" fill="#83AE9C" stroke="black" stroke-width="5" stroke-linecap="round" stroke-linejoin="round"/>
<path d="M895.41 1059.26L851.96 1070.91L637.81 855.79L680.5 844.35L895.41 1059.26Z" fill="#679392" stroke="black" stroke-width="5" stroke-linecap="round" stroke-linejoin="round"/>
<path d="M634.47 3L555.82 296.57L262.27 375.23L340.93 81.66L634.47 3Z" fill="#A3CFB0" stroke="black" stroke-width="5" stroke-linecap="round" stroke-linejoin="round"/>
<path d="M556.2 296.61L556.14 296.89L555.82 296.57L556.2 296.61Z" fill="white" stroke="black" stroke-width="5" stroke-linecap="round" stroke-linejoin="round"/>
<path d="M854.65 246.98L795.65 467.16L785.35 456.86L634.47 305.98L643.24 273.25L693.47 85.8L634.47 3L849.38 217.91L849.4 218.01L849.53 218.78L849.4 218.7L854.65 246.98Z" fill="#ABD5AF" stroke="black" stroke-width="5" stroke-linecap="round" stroke-linejoin="round"/>
<path d="M556.14 296.89L545.29 337.31L543.87 335.89L290.75 403.71L262.27 375.23L555.82 296.57L556.14 296.89Z" fill="#679392" stroke="black" stroke-width="5" stroke-linecap="round" stroke-linejoin="round"/>
<path d="M693.47 85.8L643.24 273.25L634.47 305.98L556.19 296.61L555.81 296.57L634.47 3L693.47 85.8Z" fill="#83AE9C" stroke="black" stroke-width="5" stroke-linecap="round" stroke-linejoin="round"/>
<path d="M764.02 579.87L705.02 800.05L694.72 789.74L543.86 638.87L552.63 606.14L563.07 567.2L563.09 567.09L602.84 418.69L545.19 337.74L545.28 337.33L730.27 522.29L730.34 522.39L758.75 550.8L758.77 550.89L758.91 551.65V551.69L764.02 579.87Z" fill="#ABD5AF" stroke="black" stroke-width="5" stroke-linecap="round" stroke-linejoin="round"/>
<path d="M602.84 418.69L563.09 567.09L563.07 567.2L552.63 606.14L543.86 638.87L523.92 636.48L465.58 629.51L465.19 629.45L476.04 589L476.97 589.61L544.56 337.35L545.09 338.08L602.84 418.69Z" fill="#83AE9C" stroke="black" stroke-width="5" stroke-linecap="round" stroke-linejoin="round"/>
<path d="M795.65 467.16L771.48 510.11L770.72 511.46L556.14 296.89L556.19 296.61L634.47 305.98L785.35 456.86L795.65 467.16Z" fill="#83AE9C" stroke="black" stroke-width="5" stroke-linecap="round" stroke-linejoin="round"/>
<path d="M770.72 511.46L730.27 522.29L545.28 337.33V337.31L556.14 296.89L770.72 511.46Z" fill="#679392" stroke="black" stroke-width="5" stroke-linecap="round" stroke-linejoin="round"/>
<path d="M771.48 510.11L771.12 511.46L730.34 522.39L730.27 522.29L770.72 511.46L771.48 510.11Z" fill="white" stroke="black" stroke-width="5" stroke-linecap="round" stroke-linejoin="round"/>
<path d="M849.78 217.91L849.53 218.78L849.4 218.01L849.78 217.91Z" fill="white" stroke="black" stroke-width="5" stroke-linecap="round" stroke-linejoin="round"/>
<path d="M908.78 300.72L849.78 520.87L771.12 511.46L771.48 510.11L795.65 467.16L854.65 246.98L849.53 218.8V218.78L849.78 217.91L908.78 300.72Z" fill="#83AE9C" stroke="black" stroke-width="5" stroke-linecap="round" stroke-linejoin="round"/>
<path d="M1069.94 461.87L1010.96 682.05L849.78 520.87L908.78 300.72L849.78 217.91L1064.67 432.8L1069.94 461.87Z" fill="#ABD5AF" stroke="black" stroke-width="5" stroke-linecap="round" stroke-linejoin="round"/>
<path d="M979.33 794.78L920.33 1014.94L759.15 853.76L778.38 782.02L818.15 633.6L759.15 550.8L945.58 737.2L974.06 765.69L979.33 794.78Z" fill="#ABD5AF" stroke="black" stroke-width="5" stroke-linecap="round" stroke-linejoin="round"/>
<path d="M1010.96 682.05L986.01 726.37L771.12 511.46L849.78 520.87L1010.96 682.05Z" fill="#83AE9C" stroke="black" stroke-width="5" stroke-linecap="round" stroke-linejoin="round"/>
<path d="M986.01 726.37L945.58 737.2L759.15 550.8L758.77 550.89L758.75 550.8L730.34 522.39L771.12 511.46L986.01 726.37Z" fill="#679392" stroke="black" stroke-width="5" stroke-linecap="round" stroke-linejoin="round"/>
<path d="M849.4 218.01L849.38 217.91" stroke="black" stroke-width="5" stroke-linecap="round" stroke-linejoin="round"/>
</svg>
