<svg width="2339" height="471" viewBox="0 0 2339 471" fill="none" xmlns="http://www.w3.org/2000/svg">
<g id="SnackGraph">
<g id="brand">
<path id="Vector" d="M704.34 213.69C693.16 207.61 678.1 202.46 659.14 198.27C646.57 195.48 636.79 192.68 629.8 189.89C622.81 187.1 617.97 183.8 615.28 180.01C612.59 176.22 611.24 171.43 611.24 165.64C611.24 157.46 614.48 150.77 620.97 145.58C627.45 140.39 636.28 137.8 647.46 137.8C660.83 137.8 671.31 141.39 678.89 148.58C686.47 155.77 690.96 165.15 692.36 176.72C692.36 176.72 692.49 178.01 692.36 178.76C692.23 179.51 731.67 178.76 731.67 178.76C731.67 178.76 731.83 178.22 731.57 174.92C729.97 161.15 725.83 148.98 719.15 138.4C712.46 127.82 703.18 119.49 691.31 113.4C679.43 107.32 665.01 104.27 648.05 104.27C632.08 104.27 618.41 106.92 607.04 112.2C595.66 117.49 586.88 124.88 580.7 134.35C574.51 143.83 571.42 154.76 571.42 167.13C571.42 178.71 573.82 188.34 578.6 196.02C583.39 203.71 591.07 210.09 601.65 215.18C612.22 220.27 626.29 224.81 643.86 228.8C658.43 232.2 669.4 235.69 676.79 239.28C684.17 242.87 689.16 246.76 691.76 250.96C694.35 255.15 695.65 259.94 695.65 265.33C695.65 274.31 692.21 281.15 685.32 285.84C678.43 290.53 668.71 292.87 656.13 292.87C641.36 292.87 629.89 289.18 621.7 281.79C613.51 274.41 608.53 263.83 606.73 250.06L567.21 252.45C568.41 267.22 572.65 280.14 579.93 291.22C587.21 302.3 597.24 310.93 610.01 317.11C622.78 323.29 637.95 326.39 655.51 326.39C671.68 326.39 685.7 323.85 697.57 318.76C709.44 313.67 718.72 306.39 725.41 296.91C732.09 287.43 735.44 276.21 735.44 263.23C735.44 252.65 733.04 243.28 728.26 235.09C723.47 226.91 715.49 219.78 704.31 213.69H704.34Z" fill="#ededed"/>
<path id="Vector_2" d="M854.32 158.16C843.74 158.16 834.21 160.56 825.73 165.35C817.24 170.14 810.81 178.03 806.42 189L805.52 161.76H770.79V321.62H809.11V231.21C809.11 217.64 812.1 207.26 818.09 200.08C824.08 192.9 832.26 189.3 842.64 189.3C853.02 189.3 860.25 192.89 864.34 200.08C868.43 207.27 870.48 217.64 870.48 231.21V321.62H908.8V218.94C908.8 200.98 904.11 186.36 894.73 175.08C885.35 163.81 871.88 158.17 854.32 158.17V158.16Z" fill="#ededed"/>
<path id="Vector_3" d="M1091.86 291.37C1090.36 289.77 1089.62 286.88 1089.62 282.69V224.61C1089.62 203.26 1083.78 186.84 1072.11 175.37C1060.43 163.9 1043.22 158.16 1020.47 158.16C1000.71 158.16 984.64 162.75 972.27 171.93C959.89 181.11 952.11 194.08 948.92 210.85L987.84 212.65C989.64 204.67 993.23 198.53 998.62 194.24C1004.01 189.95 1011.29 187.8 1020.47 187.8C1041.02 187.8 1051.3 199.18 1051.3 221.93L998.31 232.41C980.75 235.81 967.67 241.39 959.09 249.17C950.51 256.95 946.22 267.73 946.22 281.5C946.22 295.27 951.31 306.25 961.49 313.83C971.67 321.42 985.14 325.21 1001.9 325.21C1014.87 325.21 1026.2 322.61 1035.88 317.43C1045.56 312.24 1052.39 305.46 1056.39 297.07C1057.98 306.85 1061.78 313.59 1067.77 317.28C1073.76 320.98 1081.04 322.82 1089.62 322.82C1095.61 322.82 1100.29 322.42 1103.69 321.62V293.78H1098.6C1095.61 293.78 1093.36 292.99 1091.86 291.39V291.37ZM1051.29 256.94C1051.29 269.12 1047.55 278.9 1040.06 286.28C1032.58 293.67 1022.45 297.36 1009.68 297.36C993.91 297.36 986.03 290.88 986.03 277.9C986.03 272.31 987.87 267.77 991.57 264.28C995.26 260.79 1001.4 258.14 1009.98 256.35L1051.29 247.97V256.95V256.94Z" fill="#ededed"/>
<path id="Vector_4" d="M1201.57 189.29C1210.75 189.29 1218.48 191.94 1224.77 197.22C1231.06 202.51 1235 210.24 1236.6 220.42L1276.11 218.32C1273.71 199.36 1265.78 184.6 1252.31 174.01C1238.84 163.43 1221.93 158.14 1201.57 158.14C1185.6 158.14 1171.73 161.58 1159.96 168.47C1148.18 175.36 1139.05 185.08 1132.57 197.66C1126.08 210.23 1122.84 224.9 1122.84 241.67C1122.84 258.44 1126.08 273.1 1132.57 285.68C1139.05 298.25 1148.18 307.98 1159.96 314.87C1171.73 321.75 1185.6 325.2 1201.57 325.2C1222.12 325.2 1239.14 319.56 1252.61 308.29C1266.08 297.02 1273.91 281.8 1276.11 262.64L1236.6 260.84C1235.2 272.22 1231.36 280.6 1225.08 285.99C1218.79 291.38 1210.96 294.07 1201.58 294.07C1189.2 294.07 1179.62 289.48 1172.84 280.3C1166.05 271.12 1162.66 258.25 1162.66 241.68C1162.66 225.11 1166.05 212.24 1172.84 203.06C1179.62 193.88 1189.2 189.29 1201.58 189.29H1201.57Z" fill="#ededed"/>
<path id="Vector_5" d="M1459.31 161.75H1412.01L1346.46 233.89V110.31V109.06V105.21H1308.14V109.06V110.31V321.61H1346.46V277.6L1371.6 250.96L1418.3 321.61H1461.41L1396.75 228.21L1459.31 161.75Z" fill="#ededed"/>
<path id="Vector_6" d="M1590.13 242.28H1642.52C1642.12 251.86 1639.72 260.44 1635.34 268.02C1630.95 275.61 1624.96 281.59 1617.38 285.98C1609.79 290.37 1600.72 292.57 1590.14 292.57C1576.57 292.57 1565.34 289.23 1556.46 282.54C1547.58 275.86 1541.04 266.73 1536.85 255.15C1532.66 243.58 1530.56 230.41 1530.56 215.63C1530.56 200.85 1532.7 188.24 1537 176.56C1541.29 164.88 1547.78 155.56 1556.46 148.57C1565.14 141.59 1576.27 138.09 1589.84 138.09C1605 138.09 1616.48 141.83 1624.27 149.32C1632.05 156.8 1637.11 166.12 1639.3 178.7H1679.97C1679.97 178.7 1680.01 177.81 1679.94 177.31C1679.94 177.31 1679.94 177.27 1679.93 177.25C1679.93 177.25 1679.93 177.25 1679.93 177.24C1676.93 162.9 1671.75 150.25 1664.38 139.3C1656.99 128.33 1647.17 119.74 1634.89 113.56C1622.62 107.38 1607.5 104.28 1589.54 104.28C1568.78 104.28 1551.02 109.12 1536.25 118.8C1521.48 128.48 1510.16 141.7 1502.27 158.46C1494.38 175.22 1490.45 194.28 1490.45 215.64C1490.45 237 1494.29 256.55 1501.97 273.12C1509.65 289.69 1520.78 302.71 1535.35 312.19C1549.92 321.67 1567.28 326.41 1587.44 326.41C1602.41 326.41 1615.83 323.07 1627.7 316.38C1639.57 309.7 1648.21 300.77 1653.59 289.59L1655.39 321.62H1680.54V212.06H1590.13V242.29V242.28Z" fill="#ededed"/>
<path id="Vector_7" d="M1765.25 169.23C1759.06 174.22 1754.37 182.1 1751.18 192.88L1750.28 161.75H1714.36V321.61H1752.68V229.41C1752.68 217.24 1755.72 208.41 1761.81 202.92C1767.9 197.43 1777.03 194.69 1789.2 194.69H1804.17V161.76H1789.5C1779.52 161.76 1771.44 164.26 1765.25 169.24V169.23Z" fill="#ededed"/>
<path id="Vector_8" d="M1969.27 291.37C1967.77 289.77 1967.03 286.88 1967.03 282.69V224.61C1967.03 203.26 1961.19 186.84 1949.52 175.37C1937.84 163.9 1920.63 158.16 1897.88 158.16C1878.12 158.16 1862.05 162.75 1849.68 171.93C1837.3 181.11 1829.52 194.08 1826.33 210.85L1865.25 212.65C1867.05 204.67 1870.64 198.53 1876.03 194.24C1881.42 189.95 1888.7 187.8 1897.88 187.8C1918.43 187.8 1928.71 199.18 1928.71 221.93L1875.72 232.41C1858.16 235.81 1845.08 241.39 1836.5 249.17C1827.92 256.95 1823.63 267.73 1823.63 281.5C1823.63 295.27 1828.72 306.25 1838.9 313.83C1849.08 321.42 1862.55 325.21 1879.31 325.21C1892.28 325.21 1903.61 322.61 1913.29 317.43C1922.97 312.24 1929.8 305.46 1933.8 297.07C1935.39 306.85 1939.19 313.59 1945.18 317.28C1951.17 320.98 1958.45 322.82 1967.03 322.82C1973.02 322.82 1977.7 322.42 1981.1 321.62V293.78H1976.01C1973.02 293.78 1970.77 292.99 1969.27 291.39V291.37ZM1928.7 256.94C1928.7 269.12 1924.96 278.9 1917.47 286.28C1909.99 293.67 1899.86 297.36 1887.09 297.36C1871.32 297.36 1863.44 290.88 1863.44 277.9C1863.44 272.31 1865.28 267.77 1868.98 264.28C1872.67 260.79 1878.81 258.14 1887.39 256.35L1928.7 247.97V256.95V256.94Z" fill="#ededed"/>
<path id="Vector_9" d="M2136 169.38C2125.92 161.9 2113.3 158.15 2098.13 158.15C2087.55 158.15 2078.07 160.5 2069.69 165.18C2061.31 169.87 2054.82 176.71 2050.23 185.69L2049.63 161.74H2012.81V366.5H2051.13V299.74C2055.52 307.72 2061.86 313.96 2070.14 318.45C2078.42 322.94 2087.65 325.19 2097.83 325.19C2112.99 325.19 2125.62 321.45 2135.7 313.96C2145.77 306.48 2153.36 296.4 2158.45 283.73C2163.54 271.06 2166.08 257.04 2166.08 241.67C2166.08 226.3 2163.58 212.29 2158.6 199.61C2153.61 186.94 2146.07 176.86 2136 169.38ZM2116.25 280.14C2109.56 289.42 2100.43 294.06 2088.86 294.06C2077.29 294.06 2067.85 289.67 2061.17 280.89C2054.48 272.11 2051.14 259.04 2051.14 241.67C2051.14 224.3 2054.53 211.24 2061.32 202.45C2068.1 193.67 2077.28 189.28 2088.86 189.28C2100.44 189.28 2109.56 193.92 2116.25 203.2C2122.93 212.48 2126.28 225.31 2126.28 241.67C2126.28 258.03 2122.94 270.86 2116.25 280.14Z" fill="#ededed"/>
<path id="Vector_10" d="M2325.05 175.07C2315.87 163.8 2302.4 158.16 2284.64 158.16C2274.66 158.16 2265.68 160.21 2257.7 164.3C2249.72 168.39 2243.53 174.63 2239.14 183.01V105.01H2200.82V321.61H2239.14V229.11C2239.14 216.14 2242.18 206.26 2248.27 199.47C2254.36 192.69 2262.69 189.29 2273.27 189.29C2291.43 189.29 2300.51 202.27 2300.51 228.21V321.61H2338.83V218.93C2338.83 200.97 2334.24 186.35 2325.06 175.07H2325.05Z" fill="#ededed"/>
</g>
<g id="isotipo">
<path id="Vector_11" d="M445.76 179.02L291.76 25L81.38 81.38L25 291.76L179 445.78L389.4 389.4L407.26 357.64L449.54 199.86L445.76 179.02Z" fill="#EDEDED" stroke="#EDEDED" stroke-width="50" stroke-linecap="round" stroke-linejoin="round"/>
<path id="Vector_12" d="M445.76 179.02L291.76 25L81.38 81.38L25 291.76L179 445.78L389.4 389.4L407.26 357.64L449.54 199.86L445.76 179.02Z" fill="#1C1D22" stroke="#1C1D22" stroke-width="20" stroke-miterlimit="10"/>
<g id="Group">
<g id="Group_2">
<path id="Vector_13" d="M291.76 25L235.38 235.38L25 291.76L81.38 81.38L291.76 25Z" fill="#1C1D22"/>
<path id="Vector_14" d="M445.76 179.02L442.15 192.47L334.04 84.34L291.76 25L445.76 179.02Z" fill="#EDEDED"/>
<path id="Vector_15" d="M442.15 192.47L399.89 350.27L291.76 242.14L334.04 84.34L442.15 192.47Z" fill="#EDEDED"/>
<path id="Vector_16" d="M449.54 199.86L407.26 357.64L399.89 350.27L442.15 192.47L449.54 199.86Z" fill="#EDEDED"/>
<path id="Vector_17" d="M334.04 84.34L291.76 242.14L235.38 235.38L291.76 25L334.04 84.34Z" fill="#1C1D22"/>
<path id="Vector_18" d="M389.4 389.4L179 445.78L25 291.76L235.38 235.38L389.4 389.4Z" fill="#EDEDED"/>
<path id="Vector_19" d="M399.89 350.27L389.4 389.4L235.38 235.38L291.76 242.14L399.89 350.27Z" fill="#1C1D22"/>
<path id="Vector_20" d="M407.26 357.64L389.4 389.4L399.89 350.27L407.26 357.64Z" fill="#1C1D22"/>
</g>
<path id="Vector_21" d="M449.54 199.86L442.15 192.47L445.76 179.02L449.54 199.86Z" fill="#EDEDED"/>
</g>
</g>
</g>
</svg>
