<svg width="4555" height="1780" viewBox="0 0 4555 1780" fill="none" xmlns="http://www.w3.org/2000/svg">
<g id="snackGraph" clip-path="url(#clip0_4_93)">
<g id="Capa 1">
<g id="isotipo">
<g id="Group">
<path id="Vector" d="M458.5 675.68L391.01 927.51L301.05 1263.29L7.5 1341.95L164.68 755.36L207.32 743.81L458.5 675.68Z" fill="#EDEDED" stroke="#EDEDED" stroke-width="15" stroke-linecap="round" stroke-linejoin="round"/>
<path id="Vector_2" d="M730.85 1693.09L437.28 1771.75L7.5 1341.97L301.05 1263.29L730.85 1693.09Z" fill="#EDEDED" stroke="#EDEDED" stroke-width="15" stroke-linecap="round" stroke-linejoin="round"/>
<path id="Vector_3" d="M887.9 1107L730.85 1693.09L301.05 1263.29L391.01 927.51L391.47 927.39L458.82 676L642.19 860.21H642.21L642.29 860.29L856.44 1075.41L887.9 1107Z" fill="#EDEDED" stroke="#EDEDED" stroke-width="15" stroke-linecap="round" stroke-linejoin="round"/>
<g id="Group_2">
<path id="Vector_4" d="M548.35 340.39L480.52 593.5L469.67 633.96L176.12 712.61L254.78 419.05L295.23 408.21L548.35 340.39Z" fill="#EDEDED" stroke="#EDEDED" stroke-width="15" stroke-linecap="round" stroke-linejoin="round"/>
<path id="Vector_5" d="M470.07 634.01L469.99 634.28L469.67 633.96L470.07 634.01Z" fill="#EDEDED" stroke="#EDEDED" stroke-width="15" stroke-linecap="round" stroke-linejoin="round"/>
<path id="Vector_6" d="M549.76 341.81V341.83L549.67 342.24L549.57 342.58L482.07 594.5L481.64 594.62L480.52 593.5L548.34 340.39L549.76 341.81Z" fill="#EDEDED" stroke="#EDEDED" stroke-width="15" stroke-linecap="round" stroke-linejoin="round"/>
<path id="Vector_7" d="M549.67 342.24L548.35 340.39" stroke="#EDEDED" stroke-width="15" stroke-linecap="round" stroke-linejoin="round"/>
<path id="Vector_8" d="M469.99 634.28L458.82 676L458.5 675.68L207.32 743.81L176.12 712.61L469.67 633.96L469.99 634.28Z" fill="#EDEDED" stroke="#EDEDED" stroke-width="15" stroke-linecap="round" stroke-linejoin="round"/>
</g>
<g id="Group_3">
<path id="Vector_9" d="M709.5 804.55L708.42 806.44V806.46L685.34 847.5L684.58 848.85L469.99 634.28L470.06 634.01L528.4 640.98L548.34 643.37L699.2 794.24L709.5 804.55Z" fill="#EDEDED" stroke="#EDEDED" stroke-width="15" stroke-linecap="round" stroke-linejoin="round"/>
<path id="Vector_10" d="M684.58 848.85L642.21 860.21H642.19L458.82 676L469.99 634.28L684.58 848.85Z" fill="#EDEDED" stroke="#EDEDED" stroke-width="15" stroke-linecap="round" stroke-linejoin="round"/>
<path id="Vector_11" d="M685.34 847.5L684.98 848.85L642.29 860.29L642.21 860.21L684.58 848.85L685.34 847.5Z" fill="#EDEDED" stroke="#EDEDED" stroke-width="15" stroke-linecap="round" stroke-linejoin="round"/>
<path id="Vector_12" d="M763.63 555.3L763.39 556.15L763.25 555.39L763.63 555.3Z" fill="#EDEDED" stroke="#EDEDED" stroke-width="15" stroke-linecap="round" stroke-linejoin="round"/>
<path id="Vector_13" d="M822.63 638.1L782.86 786.52L763.63 858.26L684.98 848.85L685.34 847.5L708.42 806.46V806.44L709.5 804.55L768.5 584.37L763.39 556.19V556.15L763.63 555.3L822.63 638.1Z" fill="#EDEDED" stroke="#EDEDED" stroke-width="15" stroke-linecap="round" stroke-linejoin="round"/>
<path id="Vector_14" d="M924.81 1019.44L899.89 1063.76L684.98 848.85L763.63 858.26L924.81 1019.44Z" fill="#EDEDED" stroke="#EDEDED" stroke-width="15" stroke-linecap="round" stroke-linejoin="round"/>
<path id="Vector_15" d="M899.89 1063.76L856.44 1075.41L642.29 860.29L684.98 848.85L899.89 1063.76Z" fill="#EDEDED" stroke="#EDEDED" stroke-width="15" stroke-linecap="round" stroke-linejoin="round"/>
</g>
<g id="Group_4">
<path id="Vector_16" d="M638.95 7.5L560.3 301.07L266.75 379.73L345.41 86.16L638.95 7.5Z" fill="#EDEDED" stroke="#EDEDED" stroke-width="15" stroke-linecap="round" stroke-linejoin="round"/>
<path id="Vector_17" d="M560.68 301.11L560.62 301.39L560.3 301.07L560.68 301.11Z" fill="#EDEDED" stroke="#EDEDED" stroke-width="15" stroke-linecap="round" stroke-linejoin="round"/>
<path id="Vector_18" d="M859.13 251.48L800.13 471.66L789.83 461.36L638.95 310.48L647.72 277.75L697.95 90.3L638.95 7.5L853.86 222.41L853.82 222.52L853.88 222.51L854.01 223.28V223.3L859.13 251.48Z" fill="#EDEDED" stroke="#EDEDED" stroke-width="15" stroke-linecap="round" stroke-linejoin="round"/>
<path id="Vector_19" d="M560.62 301.39L549.77 341.81L548.35 340.39L295.23 408.21L266.75 379.73L560.3 301.07L560.62 301.39Z" fill="#EDEDED" stroke="#EDEDED" stroke-width="15" stroke-linecap="round" stroke-linejoin="round"/>
</g>
<g id="Group_5">
<path id="Vector_20" d="M697.95 90.3L647.72 277.75L638.95 310.48L560.67 301.11L560.29 301.07L638.95 7.5L697.95 90.3Z" fill="#EDEDED" stroke="#EDEDED" stroke-width="15" stroke-linecap="round" stroke-linejoin="round"/>
<path id="Vector_21" d="M768.5 584.37L709.5 804.55L699.2 794.24L548.34 643.37L557.11 610.64L567.55 571.7L567.57 571.59L607.32 423.19L549.67 342.24L549.76 341.83L734.75 526.79L734.83 526.89L763.23 555.3L763.2 555.41L763.25 555.39L763.39 556.15V556.19L768.5 584.37Z" fill="#EDEDED" stroke="#EDEDED" stroke-width="15" stroke-linecap="round" stroke-linejoin="round"/>
<path id="Vector_22" d="M607.32 423.19L567.57 571.59L567.55 571.7L557.11 610.64L548.34 643.37L528.4 640.98L470.06 634.01L469.67 633.95L480.52 593.5L481.45 594.11L549.04 341.85L549.57 342.58L607.32 423.19Z" fill="#EDEDED" stroke="#EDEDED" stroke-width="15" stroke-linecap="round" stroke-linejoin="round"/>
<path id="Vector_23" d="M800.13 471.66L775.96 514.61L775.2 515.96L560.62 301.39L560.67 301.11L638.95 310.48L789.83 461.36L800.13 471.66Z" fill="#EDEDED" stroke="#EDEDED" stroke-width="15" stroke-linecap="round" stroke-linejoin="round"/>
<path id="Vector_24" d="M775.2 515.96L734.75 526.79L549.76 341.83V341.81L560.62 301.39L775.2 515.96Z" fill="#EDEDED" stroke="#EDEDED" stroke-width="15" stroke-linecap="round" stroke-linejoin="round"/>
<path id="Vector_25" d="M775.96 514.61L775.6 515.96L734.83 526.89L734.75 526.79L775.2 515.96L775.96 514.61Z" fill="#EDEDED" stroke="#EDEDED" stroke-width="15" stroke-linecap="round" stroke-linejoin="round"/>
<path id="Vector_26" d="M854.26 222.41L854.01 223.28L853.88 222.51L854.26 222.41Z" fill="#EDEDED" stroke="#EDEDED" stroke-width="15" stroke-linecap="round" stroke-linejoin="round"/>
<path id="Vector_27" d="M913.26 305.22L854.26 525.37L775.6 515.96L775.96 514.61L800.13 471.66L859.13 251.48L854.01 223.3V223.28L854.26 222.41L913.26 305.22Z" fill="#EDEDED" stroke="#EDEDED" stroke-width="15" stroke-linecap="round" stroke-linejoin="round"/>
<path id="Vector_28" d="M1074.42 466.37L1015.44 686.55L854.26 525.37L913.26 305.22L854.26 222.41L1069.15 437.3L1074.42 466.37Z" fill="#EDEDED" stroke="#EDEDED" stroke-width="15" stroke-linecap="round" stroke-linejoin="round"/>
<path id="Vector_29" d="M983.81 799.28L924.81 1019.44L763.63 858.26L782.86 786.52L822.63 638.1L763.63 555.3L950.06 741.7L978.54 770.19L983.81 799.28Z" fill="#EDEDED" stroke="#EDEDED" stroke-width="15" stroke-linecap="round" stroke-linejoin="round"/>
<path id="Vector_30" d="M1015.44 686.55L990.49 730.87L775.6 515.96L854.26 525.37L1015.44 686.55Z" fill="#EDEDED" stroke="#EDEDED" stroke-width="15" stroke-linecap="round" stroke-linejoin="round"/>
<path id="Vector_31" d="M990.49 730.87L950.06 741.7L763.63 555.3L763.25 555.39L763.23 555.3L734.83 526.89L775.6 515.96L990.49 730.87Z" fill="#EDEDED" stroke="#EDEDED" stroke-width="15" stroke-linecap="round" stroke-linejoin="round"/>
</g>
<path id="Vector_32" d="M853.88 222.51L853.87 222.41" stroke="#EDEDED" stroke-width="15" stroke-linecap="round" stroke-linejoin="round"/>
</g>
<g id="isotipo_2">
<path id="Vector_33" d="M458.51 675.68L391.02 927.51L301.06 1263.29L7.51025 1341.95L164.69 755.36L207.32 743.81L458.51 675.68Z" fill="#EDEDED" stroke="#EDEDED" stroke-width="5" stroke-linecap="round" stroke-linejoin="round"/>
<path id="Vector_34" d="M301.06 1263.29L7.51025 1341.97V1341.95L301.06 1263.29Z" fill="white" stroke="#EDEDED" stroke-width="5" stroke-linecap="round" stroke-linejoin="round"/>
<path id="Vector_35" d="M730.86 1693.09L437.29 1771.75L7.51025 1341.97L301.06 1263.29L730.86 1693.09Z" fill="#EDEDED" stroke="#EDEDED" stroke-width="5" stroke-linecap="round" stroke-linejoin="round"/>
<path id="Vector_36" d="M301.06 1263.29L7.51023 1341.97L7.49023 1341.95H7.51023L301.06 1263.29Z" fill="white" stroke="#EDEDED" stroke-width="5" stroke-linecap="round" stroke-linejoin="round"/>
<path id="Vector_37" d="M887.91 1107L730.86 1693.09L301.06 1263.29L391.02 927.51L391.48 927.39L458.83 676L642.2 860.21H642.22L642.3 860.29L856.45 1075.41L887.91 1107Z" fill="#222327" stroke="#EDEDED" stroke-width="5" stroke-linecap="round" stroke-linejoin="round"/>
<g id="Group_6">
<path id="Vector_38" d="M548.36 340.39L480.53 593.5L469.68 633.96L176.13 712.61L254.79 419.05L295.24 408.21L548.36 340.39Z" fill="#EDEDED" stroke="#EDEDED" stroke-width="5" stroke-linecap="round" stroke-linejoin="round"/>
<path id="Vector_39" d="M470.08 634.01L470 634.28L469.68 633.96L470.08 634.01Z" fill="#222327" stroke="#EDEDED" stroke-width="5" stroke-linecap="round" stroke-linejoin="round"/>
<path id="Vector_40" d="M549.77 341.81V341.83L549.68 342.24L549.58 342.58L482.08 594.5L481.65 594.62L480.53 593.5L548.35 340.39L549.77 341.81Z" fill="#222327" stroke="#EDEDED" stroke-width="5" stroke-linecap="round" stroke-linejoin="round"/>
<path id="Vector_41" d="M549.68 342.24L548.36 340.39" stroke="#EDEDED" stroke-width="5" stroke-linecap="round" stroke-linejoin="round"/>
<path id="Vector_42" d="M470 634.28L458.83 676L458.51 675.68L207.32 743.81L176.13 712.61L469.68 633.96L470 634.28Z" fill="#222327" stroke="#EDEDED" stroke-width="5" stroke-linecap="round" stroke-linejoin="round"/>
</g>
<g id="Group_7">
<path id="Vector_43" d="M709.51 804.55L708.43 806.44V806.46L685.34 847.5L684.59 848.85L470 634.28L470.07 634.01L528.41 640.98L548.35 643.37L699.21 794.24L709.51 804.55Z" fill="#EDEDED" stroke="#EDEDED" stroke-width="5" stroke-linecap="round" stroke-linejoin="round"/>
<path id="Vector_44" d="M684.59 848.85L642.22 860.21H642.2L458.83 676L470 634.28L684.59 848.85Z" fill="#EDEDED" stroke="#EDEDED" stroke-width="5" stroke-linecap="round" stroke-linejoin="round"/>
<path id="Vector_45" d="M685.35 847.5L684.99 848.85L642.3 860.29L642.22 860.21L684.59 848.85L685.35 847.5Z" fill="white" stroke="#EDEDED" stroke-width="5" stroke-linecap="round" stroke-linejoin="round"/>
<path id="Vector_46" d="M763.64 555.3L763.4 556.15L763.26 555.39L763.64 555.3Z" fill="white" stroke="#EDEDED" stroke-width="5" stroke-linecap="round" stroke-linejoin="round"/>
<path id="Vector_47" d="M822.64 638.1L782.87 786.52L763.64 858.26L684.98 848.85L685.34 847.5L708.43 806.46V806.44L709.51 804.55L768.51 584.37L763.4 556.19V556.15L763.64 555.3L822.64 638.1Z" fill="#EDEDED" stroke="#EDEDED" stroke-width="5" stroke-linecap="round" stroke-linejoin="round"/>
<path id="Vector_48" d="M924.82 1019.44L899.9 1063.76L684.98 848.85L763.64 858.26L924.82 1019.44Z" fill="#EDEDED" stroke="#EDEDED" stroke-width="5" stroke-linecap="round" stroke-linejoin="round"/>
<path id="Vector_49" d="M899.9 1063.76L856.45 1075.41L642.3 860.29L684.99 848.85L899.9 1063.76Z" fill="#EDEDED" stroke="#EDEDED" stroke-width="5" stroke-linecap="round" stroke-linejoin="round"/>
</g>
<g id="Group_8">
<path id="Vector_50" d="M638.96 7.5L560.31 301.07L266.76 379.73L345.42 86.16L638.96 7.5Z" fill="#EDEDED" stroke="#EDEDED" stroke-width="5" stroke-linecap="round" stroke-linejoin="round"/>
<path id="Vector_51" d="M560.69 301.11L560.63 301.39L560.31 301.07L560.69 301.11Z" fill="#222327" stroke="#EDEDED" stroke-width="5" stroke-linecap="round" stroke-linejoin="round"/>
<path id="Vector_52" d="M859.14 251.48L800.14 471.66L789.84 461.36L638.96 310.48L647.73 277.75L697.96 90.3L638.96 7.5L853.87 222.41L853.89 222.51L854.02 223.28L853.89 223.2L859.14 251.48Z" fill="#222327" stroke="#EDEDED" stroke-width="5" stroke-linecap="round" stroke-linejoin="round"/>
<path id="Vector_53" d="M560.63 301.39L549.78 341.81L548.36 340.39L295.24 408.21L266.76 379.73L560.31 301.07L560.63 301.39Z" fill="#222327" stroke="#EDEDED" stroke-width="5" stroke-linecap="round" stroke-linejoin="round"/>
</g>
<g id="Group_9">
<path id="Vector_54" d="M697.96 90.3L647.73 277.75L638.96 310.48L560.68 301.11L560.3 301.07L638.96 7.5L697.96 90.3Z" fill="#EDEDED" stroke="#EDEDED" stroke-width="5" stroke-linecap="round" stroke-linejoin="round"/>
<path id="Vector_55" d="M768.51 584.37L709.51 804.55L699.21 794.24L548.35 643.37L557.12 610.64L567.56 571.7L567.58 571.59L607.33 423.19L549.68 342.24L549.77 341.83L734.76 526.79L734.83 526.89L763.24 555.3L763.26 555.39L763.4 556.15V556.19L768.51 584.37Z" fill="#222327" stroke="#EDEDED" stroke-width="5" stroke-linecap="round" stroke-linejoin="round"/>
<path id="Vector_56" d="M607.33 423.19L567.58 571.59L567.56 571.7L557.12 610.64L548.35 643.37L528.41 640.98L470.07 634.01L469.68 633.95L480.53 593.5L481.46 594.11L549.05 341.85L549.58 342.58L607.33 423.19Z" fill="#EDEDED" stroke="#EDEDED" stroke-width="5" stroke-linecap="round" stroke-linejoin="round"/>
<path id="Vector_57" d="M800.14 471.66L775.97 514.61L775.21 515.96L560.63 301.39L560.68 301.11L638.96 310.48L789.84 461.36L800.14 471.66Z" fill="#EDEDED" stroke="#EDEDED" stroke-width="5" stroke-linecap="round" stroke-linejoin="round"/>
<path id="Vector_58" d="M775.21 515.96L734.76 526.79L549.77 341.83V341.81L560.63 301.39L775.21 515.96Z" fill="#EDEDED" stroke="#EDEDED" stroke-width="5" stroke-linecap="round" stroke-linejoin="round"/>
<path id="Vector_59" d="M775.97 514.61L775.61 515.96L734.83 526.89L734.76 526.79L775.21 515.96L775.97 514.61Z" fill="#222327" stroke="#EDEDED" stroke-width="5" stroke-linecap="round" stroke-linejoin="round"/>
<path id="Vector_60" d="M854.27 222.41L854.02 223.28L853.89 222.51L854.27 222.41Z" fill="#222327" stroke="#EDEDED" stroke-width="5" stroke-linecap="round" stroke-linejoin="round"/>
<path id="Vector_61" d="M913.27 305.22L854.27 525.37L775.61 515.96L775.97 514.61L800.14 471.66L859.14 251.48L854.02 223.3V223.28L854.27 222.41L913.27 305.22Z" fill="#EDEDED" stroke="#EDEDED" stroke-width="5" stroke-linecap="round" stroke-linejoin="round"/>
<path id="Vector_62" d="M1074.43 466.37L1015.45 686.55L854.27 525.37L913.27 305.22L854.27 222.41L1069.16 437.3L1074.43 466.37Z" fill="#222327" stroke="#EDEDED" stroke-width="5" stroke-linecap="round" stroke-linejoin="round"/>
<path id="Vector_63" d="M983.82 799.28L924.82 1019.44L763.64 858.26L782.87 786.52L822.64 638.1L763.64 555.3L950.07 741.7L978.55 770.19L983.82 799.28Z" fill="#222327" stroke="#EDEDED" stroke-width="5" stroke-linecap="round" stroke-linejoin="round"/>
<path id="Vector_64" d="M1015.45 686.55L990.5 730.87L775.61 515.96L854.27 525.37L1015.45 686.55Z" fill="#EDEDED" stroke="#EDEDED" stroke-width="5" stroke-linecap="round" stroke-linejoin="round"/>
<path id="Vector_65" d="M990.5 730.87L950.07 741.7L763.64 555.3L763.26 555.39L763.24 555.3L734.83 526.89L775.61 515.96L990.5 730.87Z" fill="#EDEDED" stroke="#EDEDED" stroke-width="5" stroke-linecap="round" stroke-linejoin="round"/>
</g>
<path id="Vector_66" d="M853.89 222.51L853.87 222.41" stroke="#EDEDED" stroke-width="5" stroke-linecap="round" stroke-linejoin="round"/>
</g>
</g>
<g id="brand">
<path id="Vector_67" d="M1550.22 1068.1C1529.67 1056.91 1501.97 1047.46 1467.12 1039.76C1444 1034.63 1426.02 1029.49 1413.19 1024.35C1400.34 1019.22 1391.45 1013.16 1386.5 1006.19C1381.55 999.23 1379.07 990.42 1379.07 979.77C1379.07 964.73 1385.03 952.44 1396.96 942.9C1408.88 933.36 1425.11 928.59 1445.66 928.59C1470.23 928.59 1489.5 935.2 1503.44 948.4C1517.38 961.61 1525.64 978.86 1528.21 1000.13C1528.21 1000.13 1528.45 1002.5 1528.21 1003.89C1527.97 1005.28 1600.48 1003.89 1600.48 1003.89C1600.48 1003.89 1600.77 1002.89 1600.3 996.83C1597.36 971.51 1589.75 949.14 1577.46 929.69C1565.17 910.25 1548.1 894.93 1526.28 883.74C1504.44 872.55 1477.94 866.95 1446.76 866.95C1417.4 866.95 1392.28 871.82 1371.37 881.53C1350.46 891.25 1334.31 904.83 1322.94 922.25C1311.56 939.68 1305.88 959.77 1305.88 982.51C1305.88 1003.79 1310.28 1021.5 1319.09 1035.62C1327.9 1049.75 1342.01 1061.48 1361.47 1070.84C1380.91 1080.2 1406.78 1088.54 1439.06 1095.88C1465.84 1102.12 1486.02 1108.54 1499.6 1115.14C1513.17 1121.74 1522.34 1128.9 1527.12 1136.6C1531.88 1144.31 1534.28 1153.11 1534.28 1163.02C1534.28 1179.53 1527.95 1192.1 1515.29 1200.72C1502.63 1209.34 1484.75 1213.65 1461.63 1213.65C1434.48 1213.65 1413.38 1206.87 1398.34 1193.29C1383.29 1179.72 1374.13 1160.27 1370.82 1134.96L1298.17 1139.36C1300.37 1166.52 1308.16 1190.27 1321.56 1210.63C1334.95 1230.99 1353.38 1246.87 1376.87 1258.23C1400.35 1269.6 1428.23 1275.29 1460.52 1275.29C1490.24 1275.29 1516.01 1270.61 1537.84 1261.26C1559.66 1251.91 1576.72 1238.52 1589.02 1221.09C1601.31 1203.67 1607.45 1183.03 1607.45 1159.18C1607.45 1139.74 1603.05 1122.5 1594.24 1107.45C1585.43 1092.41 1570.76 1079.3 1550.21 1068.1H1550.22Z" fill="#EDEDED"/>
<path id="Vector_68" d="M1825.94 966.01C1806.49 966.01 1788.97 970.41 1773.38 979.22C1757.78 988.03 1745.95 1002.52 1737.88 1022.7L1736.23 972.62H1672.39V1266.49H1742.83V1100.29C1742.83 1075.34 1748.33 1056.26 1759.34 1043.06C1770.35 1029.85 1785.39 1023.25 1804.47 1023.25C1823.55 1023.25 1836.85 1029.86 1844.37 1043.06C1851.89 1056.27 1855.65 1075.35 1855.65 1100.29V1266.49H1926.09V1077.73C1926.09 1044.71 1917.47 1017.84 1900.23 997.11C1882.98 976.39 1858.22 966.02 1825.94 966.02V966.01Z" fill="#EDEDED"/>
<path id="Vector_69" d="M2262.62 1210.91C2259.87 1207.98 2258.49 1202.65 2258.49 1194.95V1088.19C2258.49 1048.94 2247.76 1018.76 2226.3 997.66C2204.84 976.57 2173.19 966.02 2131.37 966.02C2095.05 966.02 2065.51 974.46 2042.77 991.34C2020.02 1008.22 2005.71 1032.06 1999.84 1062.88L2071.38 1066.18C2074.68 1051.51 2081.29 1040.23 2091.19 1032.34C2101.1 1024.45 2114.48 1020.51 2131.37 1020.51C2169.15 1020.51 2188.05 1041.42 2188.05 1083.25L2090.64 1102.51C2058.35 1108.75 2034.32 1119.02 2018.55 1133.33C2002.77 1147.64 1994.89 1167.45 1994.89 1192.76C1994.89 1218.07 2004.25 1238.26 2022.96 1252.19C2041.67 1266.14 2066.44 1273.1 2097.25 1273.1C2121.1 1273.1 2141.91 1268.33 2159.71 1258.79C2177.5 1249.26 2190.06 1236.78 2197.41 1221.37C2200.34 1239.35 2207.32 1251.73 2218.32 1258.52C2229.33 1265.31 2242.71 1268.7 2258.49 1268.7C2269.5 1268.7 2278.11 1267.96 2284.35 1266.5V1215.32H2274.99C2269.49 1215.32 2265.36 1213.86 2262.61 1210.92L2262.62 1210.91ZM2188.05 1147.62C2188.05 1170 2181.17 1187.98 2167.41 1201.55C2153.65 1215.13 2135.03 1221.91 2111.55 1221.91C2082.57 1221.91 2068.07 1209.99 2068.07 1186.14C2068.07 1175.87 2071.46 1167.52 2078.25 1161.1C2085.04 1154.69 2096.32 1149.82 2112.1 1146.52L2188.04 1131.11V1147.62H2188.05Z" fill="#EDEDED"/>
<path id="Vector_70" d="M2464.31 1023.24C2481.18 1023.24 2495.4 1028.11 2506.96 1037.82C2518.52 1047.54 2525.76 1061.76 2528.7 1080.47L2601.34 1076.62C2596.94 1041.77 2582.35 1014.62 2557.59 995.17C2532.82 975.73 2501.73 966 2464.31 966C2434.95 966 2409.46 972.33 2387.81 984.99C2366.16 997.65 2349.37 1015.53 2337.46 1038.65C2325.53 1061.76 2319.57 1088.73 2319.57 1119.55C2319.57 1150.37 2325.53 1177.33 2337.46 1200.45C2349.38 1223.56 2366.16 1241.45 2387.81 1254.11C2409.45 1266.77 2434.95 1273.1 2464.31 1273.1C2502.09 1273.1 2533.38 1262.74 2558.14 1242.01C2582.91 1221.29 2597.3 1193.31 2601.34 1158.09L2528.7 1154.79C2526.13 1175.7 2519.07 1191.11 2507.51 1201.02C2495.95 1210.93 2481.55 1215.88 2464.31 1215.88C2441.56 1215.88 2423.94 1207.44 2411.48 1190.56C2399 1173.69 2392.77 1150.03 2392.77 1119.57C2392.77 1089.11 2399 1065.46 2411.48 1048.58C2423.95 1031.71 2441.56 1023.26 2464.31 1023.26V1023.24Z" fill="#EDEDED"/>
<path id="Vector_71" d="M2938.14 972.62H2851.19L2730.67 1105.24V878.06V875.76V868.68H2660.23V875.76V878.06V1266.49H2730.67V1185.59L2776.89 1136.61L2862.74 1266.49H2941.99L2823.12 1094.79L2938.14 972.62Z" fill="#EDEDED"/>
<path id="Vector_72" d="M3178.63 1120.65H3274.94C3274.2 1138.26 3269.8 1154.04 3261.73 1167.98C3253.65 1181.93 3242.65 1192.93 3228.71 1201C3214.77 1209.07 3198.07 1213.11 3178.63 1213.11C3153.68 1213.11 3133.04 1206.97 3116.72 1194.67C3100.39 1182.38 3088.38 1165.6 3080.68 1144.32C3072.97 1123.05 3069.12 1098.83 3069.12 1071.68C3069.12 1044.53 3073.06 1021.32 3080.95 999.86C3088.84 978.4 3100.76 961.25 3116.72 948.4C3132.68 935.56 3153.13 929.14 3178.08 929.14C3205.96 929.14 3227.06 936.02 3241.37 949.78C3255.68 963.54 3264.97 980.67 3269.01 1003.78H3343.78C3343.78 1003.78 3343.85 1002.15 3343.72 1001.23H3343.73C3343.73 1001.23 3343.71 1001.16 3343.7 1001.12V1001.1C3338.19 974.74 3328.66 951.49 3315.11 931.35C3301.53 911.18 3283.47 895.4 3260.9 884.02C3238.34 872.65 3210.55 866.96 3177.53 866.96C3139.37 866.96 3106.72 875.86 3079.57 893.65C3052.42 911.45 3031.6 935.75 3017.11 966.57C3002.61 997.39 2995.37 1032.43 2995.37 1071.68C2995.37 1110.93 3002.43 1146.89 3016.56 1177.34C3030.68 1207.8 3051.14 1231.74 3077.92 1249.16C3104.7 1266.58 3136.62 1275.3 3173.68 1275.3C3201.2 1275.3 3225.87 1269.15 3247.7 1256.86C3269.53 1244.57 3285.4 1228.16 3295.3 1207.61L3298.6 1266.49H3344.83V1065.07H3178.63V1120.65Z" fill="#EDEDED"/>
<path id="Vector_73" d="M3500.57 986.37C3489.2 995.55 3480.57 1010.03 3474.71 1029.85L3473.06 972.62H3407.02V1266.49H3477.46V1096.99C3477.46 1074.62 3483.05 1058.38 3494.24 1048.29C3505.43 1038.2 3522.21 1033.16 3544.6 1033.16H3572.12V972.62H3545.15C3526.8 972.62 3511.94 977.21 3500.57 986.38V986.37Z" fill="#EDEDED"/>
<path id="Vector_74" d="M3875.62 1210.91C3872.87 1207.98 3871.49 1202.65 3871.49 1194.95V1088.19C3871.49 1048.94 3860.76 1018.76 3839.3 997.66C3817.84 976.57 3786.19 966.02 3744.37 966.02C3708.05 966.02 3678.51 974.46 3655.77 991.34C3633.02 1008.22 3618.71 1032.06 3612.84 1062.88L3684.38 1066.18C3687.68 1051.51 3694.29 1040.23 3704.19 1032.34C3714.1 1024.45 3727.48 1020.51 3744.37 1020.51C3782.15 1020.51 3801.05 1041.42 3801.05 1083.25L3703.64 1102.51C3671.35 1108.75 3647.32 1119.02 3631.55 1133.33C3615.77 1147.64 3607.89 1167.45 3607.89 1192.76C3607.89 1218.07 3617.25 1238.26 3635.96 1252.19C3654.67 1266.14 3679.44 1273.1 3710.25 1273.1C3734.1 1273.1 3754.91 1268.33 3772.71 1258.79C3790.5 1249.26 3803.06 1236.78 3810.41 1221.37C3813.34 1239.35 3820.32 1251.73 3831.32 1258.52C3842.33 1265.31 3855.71 1268.7 3871.49 1268.7C3882.5 1268.7 3891.11 1267.96 3897.35 1266.5V1215.32H3887.99C3882.49 1215.32 3878.36 1213.86 3875.61 1210.92L3875.62 1210.91ZM3801.05 1147.62C3801.05 1170 3794.17 1187.98 3780.41 1201.55C3766.65 1215.13 3748.03 1221.91 3724.55 1221.91C3695.57 1221.91 3681.07 1209.99 3681.07 1186.14C3681.07 1175.87 3684.46 1167.52 3691.25 1161.1C3698.04 1154.69 3709.32 1149.82 3725.1 1146.52L3801.04 1131.11V1147.62H3801.05Z" fill="#EDEDED"/>
<path id="Vector_75" d="M4182.14 986.65C4163.61 972.89 4140.4 966.01 4112.53 966.01C4093.08 966.01 4075.66 970.33 4060.25 978.94C4044.84 987.56 4032.92 1000.13 4024.48 1016.64L4023.38 972.61H3955.69V1349.03H4026.13V1226.31C4034.2 1240.99 4045.85 1252.45 4061.08 1260.71C4076.3 1268.96 4093.27 1273.09 4111.99 1273.09C4139.87 1273.09 4163.07 1266.21 4181.6 1252.45C4200.12 1238.69 4214.07 1220.17 4223.42 1196.87C4232.78 1173.58 4237.45 1147.8 4237.45 1119.55C4237.45 1091.3 4232.86 1065.53 4223.69 1042.23C4214.52 1018.94 4200.66 1000.41 4182.14 986.65ZM4145.82 1190.27C4133.52 1207.33 4116.74 1215.86 4095.46 1215.86C4074.18 1215.86 4056.84 1207.79 4044.55 1191.65C4032.26 1175.51 4026.12 1151.47 4026.12 1119.56C4026.12 1087.65 4032.35 1063.62 4044.83 1047.47C4057.3 1031.33 4074.18 1023.25 4095.46 1023.25C4116.74 1023.25 4133.52 1031.78 4145.82 1048.84C4158.11 1065.9 4164.25 1089.48 4164.25 1119.56C4164.25 1149.64 4158.1 1173.22 4145.82 1190.28V1190.27Z" fill="#EDEDED"/>
<path id="Vector_76" d="M4529.67 997.11C4512.79 976.39 4488.02 966.02 4455.37 966.02C4437.02 966.02 4420.51 969.79 4405.84 977.3C4391.16 984.82 4379.79 996.29 4371.72 1011.7V868.31H4301.28V1266.5H4371.72V1096.45C4371.72 1072.6 4377.31 1054.44 4388.5 1041.97C4399.69 1029.5 4415 1023.26 4434.45 1023.26C4467.83 1023.26 4484.53 1047.11 4484.53 1094.8V1266.5H4554.97V1077.74C4554.97 1044.72 4546.53 1017.85 4529.66 997.12L4529.67 997.11Z" fill="#EDEDED"/>
</g>
</g>
</g>
<defs>
<clipPath id="clip0_4_93">
<rect width="4554.98" height="1779.25" fill="white"/>
</clipPath>
</defs>
</svg>
