<svg width="220" height="48" viewBox="0 0 220 48" fill="none" xmlns="http://www.w3.org/2000/svg">
    <path d="M213.261 25.8007C211.172 25.9965 209.394 26.2249 207.926 26.4859C206.458 26.7469 205.251 27.0732 204.304 27.4647C203.358 27.8563 202.657 28.3294 202.2 28.884C201.776 29.4061 201.564 30.0423 201.564 30.7927C201.564 31.9347 202.004 32.8319 202.885 33.4845C203.766 34.137 204.941 34.4633 206.409 34.4633C208.562 34.4633 210.243 33.925 211.45 32.8483C212.657 31.7389 213.261 30.0586 213.261 27.8073V25.8007ZM205.136 38.8191C203.701 38.8191 202.379 38.6233 201.172 38.2318C199.998 37.8729 198.97 37.3509 198.089 36.6657C197.241 35.9805 196.572 35.1648 196.082 34.2186C195.626 33.2398 195.397 32.1468 195.397 30.9396C195.397 29.3082 195.87 27.9541 196.816 26.8774C197.763 25.8007 199.035 24.9198 200.634 24.2346C202.265 23.5494 204.141 23.0274 206.262 22.6685C208.415 22.3096 210.699 21.9996 213.114 21.7386V21.2492C213.114 20.1399 212.967 19.21 212.673 18.4596C212.38 17.6765 211.972 17.0729 211.45 16.6487C210.96 16.1919 210.373 15.8657 209.688 15.6699C209.035 15.4741 208.35 15.3763 207.632 15.3763C206.164 15.3763 204.924 15.7678 203.913 16.5508C202.934 17.3339 202.412 18.5248 202.347 20.1236H196.621C196.719 18.7858 197.061 17.5623 197.648 16.453C198.236 15.3436 199.019 14.3974 199.998 13.6144C200.976 12.7987 202.118 12.1788 203.423 11.7546C204.761 11.2978 206.229 11.0694 207.828 11.0694C209.394 11.0694 210.862 11.2652 212.233 11.6567C213.603 12.0483 214.794 12.6845 215.805 13.5654C216.817 14.4464 217.6 15.621 218.155 17.0892C218.709 18.5248 218.97 20.2867 218.938 22.3749C218.938 22.7011 218.921 23.1253 218.889 23.6473C218.889 24.1694 218.889 24.7403 218.889 25.3603C218.889 25.9802 218.872 26.6327 218.84 27.3179C218.84 27.9705 218.84 28.5904 218.84 29.1777C218.84 30.8417 218.905 32.4894 219.036 34.1207C219.166 35.7195 219.362 37.0735 219.623 38.1829H214.288C214.19 37.6282 214.093 37.1225 213.995 36.6657C213.929 36.2089 213.864 35.5237 213.799 34.6101C212.951 36.0458 211.776 37.1061 210.275 37.7913C208.807 38.4765 207.094 38.8191 205.136 38.8191Z" fill="#ededed"/>
    <path d="M182.632 4.90278H188.456V11.8524H193.742V16.0614H188.456V30.4011C188.456 31.7389 188.668 32.6361 189.092 33.0929C189.517 33.5171 190.349 33.7291 191.588 33.7291H193.693V38.1828H189.386C187.983 38.1828 186.841 38.0849 185.96 37.8891C185.079 37.6607 184.394 37.2855 183.905 36.7635C183.415 36.2414 183.073 35.54 182.877 34.659C182.714 33.7454 182.632 32.6198 182.632 31.2821V16.0614H178.717V11.8524H182.632V4.90278Z" fill="#ededed"/>
    <path d="M171.701 25.8007C169.613 25.9965 167.834 26.2249 166.366 26.4859C164.898 26.7469 163.691 27.0732 162.745 27.4647C161.798 27.8563 161.097 28.3294 160.64 28.884C160.216 29.4061 160.004 30.0423 160.004 30.7927C160.004 31.9347 160.444 32.8319 161.325 33.4845C162.206 34.137 163.381 34.4633 164.849 34.4633C167.002 34.4633 168.683 33.925 169.89 32.8483C171.097 31.7389 171.701 30.0586 171.701 27.8073V25.8007ZM163.577 38.8191C162.141 38.8191 160.82 38.6233 159.612 38.2318C158.438 37.8729 157.41 37.3509 156.529 36.6657C155.681 35.9805 155.012 35.1648 154.523 34.2186C154.066 33.2398 153.837 32.1468 153.837 30.9396C153.837 29.3082 154.31 27.9541 155.257 26.8774C156.203 25.8007 157.475 24.9198 159.074 24.2346C160.705 23.5494 162.581 23.0274 164.702 22.6685C166.856 22.3096 169.14 21.9996 171.554 21.7386V21.2492C171.554 20.1399 171.407 19.21 171.113 18.4596C170.82 17.6765 170.412 17.0729 169.89 16.6487C169.401 16.1919 168.813 15.8657 168.128 15.6699C167.476 15.4741 166.79 15.3763 166.073 15.3763C164.604 15.3763 163.365 15.7678 162.353 16.5508C161.374 17.3339 160.852 18.5248 160.787 20.1236H155.061C155.159 18.7858 155.501 17.5623 156.089 16.453C156.676 15.3436 157.459 14.3974 158.438 13.6144C159.417 12.7987 160.559 12.1788 161.864 11.7546C163.201 11.2978 164.67 11.0694 166.268 11.0694C167.834 11.0694 169.303 11.2652 170.673 11.6567C172.043 12.0483 173.234 12.6845 174.246 13.5654C175.257 14.4464 176.04 15.621 176.595 17.0892C177.149 18.5248 177.41 20.2867 177.378 22.3749C177.378 22.7011 177.362 23.1253 177.329 23.6473C177.329 24.1694 177.329 24.7403 177.329 25.3603C177.329 25.9802 177.313 26.6327 177.28 27.3179C177.28 27.9705 177.28 28.5904 177.28 29.1777C177.28 30.8417 177.345 32.4894 177.476 34.1207C177.606 35.7195 177.802 37.0735 178.063 38.1829H172.728C172.631 37.6282 172.533 37.1225 172.435 36.6657C172.37 36.2089 172.304 35.5237 172.239 34.6101C171.391 36.0458 170.216 37.1061 168.715 37.7913C167.247 38.4765 165.534 38.8191 163.577 38.8191Z" fill="#ededed"/>
    <path d="M144.473 2.70168H150.297V38.184H144.473V34.7092C143.69 36.0143 142.63 37.0258 141.292 37.7436C139.954 38.4614 138.405 38.8203 136.643 38.8203C135.077 38.8203 133.592 38.5103 132.189 37.8904C130.819 37.2378 129.612 36.308 128.568 35.1007C127.524 33.8935 126.692 32.4416 126.072 30.745C125.484 29.0483 125.191 27.1396 125.191 25.0189C125.191 22.9307 125.484 21.0383 126.072 19.3417C126.692 17.6451 127.524 16.1931 128.568 14.9859C129.612 13.7787 130.819 12.8651 132.189 12.2452C133.592 11.5927 135.077 11.2664 136.643 11.2664C138.405 11.2664 139.954 11.6253 141.292 12.3431C142.63 13.0609 143.69 14.0723 144.473 15.3774V2.70168ZM144.718 25.0189C144.718 23.518 144.539 22.1966 144.18 21.0546C143.821 19.9127 143.331 18.9828 142.711 18.265C142.124 17.5145 141.406 16.9599 140.558 16.601C139.742 16.2094 138.861 16.0137 137.915 16.0137C136.936 16.0137 136.039 16.2258 135.224 16.6499C134.408 17.0741 133.706 17.6777 133.119 18.4607C132.532 19.2438 132.075 20.19 131.749 21.2993C131.422 22.4087 131.259 23.6485 131.259 25.0189C131.259 27.8248 131.879 30.0435 133.119 31.6749C134.359 33.2736 135.958 34.073 137.915 34.073C138.861 34.073 139.742 33.8935 140.558 33.5346C141.406 33.1431 142.124 32.5721 142.711 31.8217C143.331 31.0712 143.821 30.1414 144.18 29.032C144.539 27.8901 144.718 26.5523 144.718 25.0189Z" fill="#ededed"/>
    <path d="M121.915 11.8533V38.1836H116.091V11.8533H121.915Z" fill="#ededed"/>
    <path d="M94.5637 15.5243C95.3141 14.1539 96.3582 13.1098 97.6959 12.392C99.0662 11.6416 100.681 11.2664 102.541 11.2664C104.14 11.2664 105.494 11.5111 106.603 12.0005C107.745 12.4899 108.675 13.1914 109.393 14.105C110.11 15.0185 110.633 16.1116 110.959 17.384C111.318 18.6565 111.497 20.0758 111.497 21.6419V38.184H105.673V23.0612C105.673 22.1803 105.624 21.3156 105.526 20.4673C105.428 19.619 105.2 18.8686 104.841 18.216C104.515 17.5309 104.009 16.9925 103.324 16.601C102.672 16.2094 101.791 16.0137 100.681 16.0137C99.5719 16.0137 98.6257 16.2258 97.8427 16.6499C97.0596 17.0414 96.4234 17.5961 95.934 18.3139C95.4446 19.0317 95.0857 19.8963 94.8573 20.9078C94.6616 21.9192 94.5637 23.0123 94.5637 24.1869V38.184H88.7398V2.70168H94.5637V15.5243Z" fill="#ededed"/>
    <path d="M66.0597 25.0181C66.0597 26.5516 66.2228 27.8894 66.5491 29.0313C66.908 30.1407 67.3974 31.0705 68.0173 31.821C68.6372 32.5714 69.355 33.1424 70.1707 33.5339C71.019 33.8928 71.9163 34.0723 72.8624 34.0723C74.9179 34.0723 76.5167 33.2729 77.6586 31.6741C78.8006 30.0428 79.3715 27.8241 79.3715 25.0181C79.3715 22.2448 78.8006 20.0588 77.6586 18.46C76.5167 16.8287 74.9179 16.013 72.8624 16.013C71.9163 16.013 71.019 16.2087 70.1707 16.6003C69.355 16.9592 68.6372 17.5138 68.0173 18.2643C67.3974 18.9821 66.908 19.912 66.5491 21.0539C66.2228 22.1959 66.0597 23.5173 66.0597 25.0181ZM66.3044 11.853V15.3767C67.0874 14.0716 68.1478 13.0602 69.4855 12.3424C70.8233 11.6246 72.373 11.2657 74.1349 11.2657C75.7336 11.2657 77.2182 11.592 78.5885 12.2445C79.9915 12.8644 81.1987 13.778 82.2101 14.9852C83.2215 16.1924 84.0046 17.6443 84.5592 19.341C85.1465 21.0376 85.4402 22.93 85.4402 25.0181C85.4402 27.1389 85.1465 29.0476 84.5592 30.7443C84.0046 32.4409 83.2215 33.8928 82.2101 35.1C81.1987 36.3072 79.9915 37.2371 78.5885 37.8897C77.2182 38.5096 75.7336 38.8196 74.1349 38.8196C72.373 38.8196 70.8233 38.4607 69.4855 37.7429C68.1478 37.0251 67.0874 36.0136 66.3044 34.7085V46.748H60.4805V11.853H66.3044Z" fill="#ededed"/>
    <path d="M123.075 4.78321C123.075 7.03173 121.252 8.85451 119.004 8.85451C116.755 8.85451 114.933 7.03173 114.933 4.78321C114.933 2.5347 116.755 0.711914 119.004 0.711914C121.252 0.711914 123.075 2.5347 123.075 4.78321Z" fill="#ededed"/>
    <path fill-rule="evenodd" clip-rule="evenodd" d="M1.61644 4.45348C0 6.832 0 10.1587 0 16.8122V30.6472C0 37.3007 0 40.6274 1.61644 43.0059C2.27868 43.9804 3.11916 44.8209 4.09362 45.4831C6.47214 47.0996 9.79888 47.0996 16.4524 47.0996H30.2873C36.9408 47.0996 40.2676 47.0996 42.6461 45.4831C43.6205 44.8209 44.461 43.9804 45.1232 43.0059C46.7397 40.6274 46.7397 37.3007 46.7397 30.6472V16.8122C46.7397 10.1587 46.7397 6.832 45.1232 4.45348C44.461 3.47903 43.6205 2.63854 42.6461 1.9763C40.2676 0.359863 36.9408 0.359863 30.2873 0.359863H16.4524C9.79888 0.359863 6.47214 0.359863 4.09362 1.9763C3.11916 2.63854 2.27868 3.47903 1.61644 4.45348ZM39.2146 30.7138C39.1938 29.7399 38.3876 28.9673 37.4137 28.988C36.4398 29.0087 35.6671 29.815 35.6878 30.7889C35.7527 33.8387 34.9748 35.2569 33.9907 35.9567C32.8974 36.7342 30.9816 37.0589 27.8335 36.5909C26.87 36.4477 25.9728 37.1127 25.8295 38.0762C25.6863 39.0397 26.3513 39.9369 27.3148 40.0801C30.6926 40.5822 33.7859 40.4307 36.0349 38.8315C38.3931 37.1546 39.2908 34.2958 39.2146 30.7138Z" fill="#ededed"/>
</svg>