<svg width="1083" height="1780" viewBox="0 0 1083 1780" fill="none" xmlns="http://www.w3.org/2000/svg">
<g id="isotipo">
<g id="Group">
<path id="Vector" d="M459.01 676.18L391.52 928.01L301.56 1263.79L8.00977 1342.45L165.19 755.86L207.83 744.31L459.01 676.18Z" fill="#222327" stroke="#222327" stroke-width="15" stroke-linecap="round" stroke-linejoin="round"/>
<path id="Vector_2" d="M731.36 1693.59L437.79 1772.25L8.00977 1342.47L301.56 1263.79L731.36 1693.59Z" fill="#222327" stroke="#222327" stroke-width="15" stroke-linecap="round" stroke-linejoin="round"/>
<path id="Vector_3" d="M888.41 1107.5L731.36 1693.59L301.56 1263.79L391.52 928.01L391.98 927.89L459.33 676.5L642.7 860.71H642.72L642.8 860.79L856.95 1075.91L888.41 1107.5Z" fill="#222327" stroke="#222327" stroke-width="15" stroke-linecap="round" stroke-linejoin="round"/>
<g id="Group_2">
<path id="Vector_4" d="M548.86 340.89L481.03 594L470.18 634.46L176.63 713.11L255.29 419.55L295.74 408.71L548.86 340.89Z" fill="#222327" stroke="#222327" stroke-width="15" stroke-linecap="round" stroke-linejoin="round"/>
<path id="Vector_5" d="M470.58 634.51L470.5 634.78L470.18 634.46L470.58 634.51Z" fill="#222327" stroke="#222327" stroke-width="15" stroke-linecap="round" stroke-linejoin="round"/>
<path id="Vector_6" d="M550.27 342.31V342.33L550.18 342.74L550.08 343.08L482.58 595L482.15 595.12L481.03 594L548.85 340.89L550.27 342.31Z" fill="#222327" stroke="#222327" stroke-width="15" stroke-linecap="round" stroke-linejoin="round"/>
<path id="Vector_7" d="M550.18 342.74L548.86 340.89" stroke="#222327" stroke-width="15" stroke-linecap="round" stroke-linejoin="round"/>
<path id="Vector_8" d="M470.5 634.78L459.33 676.5L459.01 676.18L207.83 744.31L176.63 713.11L470.18 634.46L470.5 634.78Z" fill="#222327" stroke="#222327" stroke-width="15" stroke-linecap="round" stroke-linejoin="round"/>
</g>
<g id="Group_3">
<path id="Vector_9" d="M710.01 805.05L708.93 806.94V806.96L685.85 848L685.09 849.35L470.5 634.78L470.57 634.51L528.91 641.48L548.85 643.87L699.71 794.74L710.01 805.05Z" fill="#222327" stroke="#222327" stroke-width="15" stroke-linecap="round" stroke-linejoin="round"/>
<path id="Vector_10" d="M685.09 849.35L642.72 860.71H642.7L459.33 676.5L470.5 634.78L685.09 849.35Z" fill="#222327" stroke="#222327" stroke-width="15" stroke-linecap="round" stroke-linejoin="round"/>
<path id="Vector_11" d="M685.85 848L685.49 849.35L642.8 860.79L642.72 860.71L685.09 849.35L685.85 848Z" fill="#222327" stroke="#222327" stroke-width="15" stroke-linecap="round" stroke-linejoin="round"/>
<path id="Vector_12" d="M764.14 555.8L763.9 556.65L763.76 555.89L764.14 555.8Z" fill="#222327" stroke="#222327" stroke-width="15" stroke-linecap="round" stroke-linejoin="round"/>
<path id="Vector_13" d="M823.14 638.6L783.37 787.02L764.14 858.76L685.49 849.35L685.85 848L708.93 806.96V806.94L710.01 805.05L769.01 584.87L763.9 556.69V556.65L764.14 555.8L823.14 638.6Z" fill="#222327" stroke="#222327" stroke-width="15" stroke-linecap="round" stroke-linejoin="round"/>
<path id="Vector_14" d="M925.32 1019.94L900.4 1064.26L685.49 849.35L764.14 858.76L925.32 1019.94Z" fill="#222327" stroke="#222327" stroke-width="15" stroke-linecap="round" stroke-linejoin="round"/>
<path id="Vector_15" d="M900.4 1064.26L856.95 1075.91L642.8 860.79L685.49 849.35L900.4 1064.26Z" fill="#222327" stroke="#222327" stroke-width="15" stroke-linecap="round" stroke-linejoin="round"/>
</g>
<g id="Group_4">
<path id="Vector_16" d="M639.46 8L560.81 301.57L267.26 380.23L345.92 86.66L639.46 8Z" fill="#222327" stroke="#222327" stroke-width="15" stroke-linecap="round" stroke-linejoin="round"/>
<path id="Vector_17" d="M561.19 301.61L561.13 301.89L560.81 301.57L561.19 301.61Z" fill="#222327" stroke="#222327" stroke-width="15" stroke-linecap="round" stroke-linejoin="round"/>
<path id="Vector_18" d="M859.64 251.98L800.64 472.16L790.34 461.86L639.46 310.98L648.23 278.25L698.46 90.8L639.46 8L854.37 222.91L854.33 223.02L854.39 223.01L854.52 223.78V223.8L859.64 251.98Z" fill="#222327" stroke="#222327" stroke-width="15" stroke-linecap="round" stroke-linejoin="round"/>
<path id="Vector_19" d="M561.13 301.89L550.28 342.31L548.86 340.89L295.74 408.71L267.26 380.23L560.81 301.57L561.13 301.89Z" fill="#222327" stroke="#222327" stroke-width="15" stroke-linecap="round" stroke-linejoin="round"/>
</g>
<g id="Group_5">
<path id="Vector_20" d="M698.46 90.8L648.23 278.25L639.46 310.98L561.18 301.61L560.8 301.57L639.46 8L698.46 90.8Z" fill="#222327" stroke="#222327" stroke-width="15" stroke-linecap="round" stroke-linejoin="round"/>
<path id="Vector_21" d="M769.01 584.87L710.01 805.05L699.71 794.74L548.85 643.87L557.62 611.14L568.06 572.2L568.08 572.09L607.83 423.69L550.18 342.74L550.27 342.33L735.26 527.29L735.34 527.39L763.74 555.8L763.71 555.91L763.76 555.89L763.9 556.65V556.69L769.01 584.87Z" fill="#222327" stroke="#222327" stroke-width="15" stroke-linecap="round" stroke-linejoin="round"/>
<path id="Vector_22" d="M607.83 423.69L568.08 572.09L568.06 572.2L557.62 611.14L548.85 643.87L528.91 641.48L470.57 634.51L470.18 634.45L481.03 594L481.96 594.61L549.55 342.35L550.08 343.08L607.83 423.69Z" fill="#222327" stroke="#222327" stroke-width="15" stroke-linecap="round" stroke-linejoin="round"/>
<path id="Vector_23" d="M800.64 472.16L776.47 515.11L775.71 516.46L561.13 301.89L561.18 301.61L639.46 310.98L790.34 461.86L800.64 472.16Z" fill="#222327" stroke="#222327" stroke-width="15" stroke-linecap="round" stroke-linejoin="round"/>
<path id="Vector_24" d="M775.71 516.46L735.26 527.29L550.27 342.33V342.31L561.13 301.89L775.71 516.46Z" fill="#222327" stroke="#222327" stroke-width="15" stroke-linecap="round" stroke-linejoin="round"/>
<path id="Vector_25" d="M776.47 515.11L776.11 516.46L735.34 527.39L735.26 527.29L775.71 516.46L776.47 515.11Z" fill="#222327" stroke="#222327" stroke-width="15" stroke-linecap="round" stroke-linejoin="round"/>
<path id="Vector_26" d="M854.77 222.91L854.52 223.78L854.39 223.01L854.77 222.91Z" fill="#222327" stroke="#222327" stroke-width="15" stroke-linecap="round" stroke-linejoin="round"/>
<path id="Vector_27" d="M913.77 305.72L854.77 525.87L776.11 516.46L776.47 515.11L800.64 472.16L859.64 251.98L854.52 223.8V223.78L854.77 222.91L913.77 305.72Z" fill="#222327" stroke="#222327" stroke-width="15" stroke-linecap="round" stroke-linejoin="round"/>
<path id="Vector_28" d="M1074.93 466.87L1015.95 687.05L854.77 525.87L913.77 305.72L854.77 222.91L1069.66 437.8L1074.93 466.87Z" fill="#222327" stroke="#222327" stroke-width="15" stroke-linecap="round" stroke-linejoin="round"/>
<path id="Vector_29" d="M984.32 799.78L925.32 1019.94L764.14 858.76L783.37 787.02L823.14 638.6L764.14 555.8L950.57 742.2L979.05 770.69L984.32 799.78Z" fill="#222327" stroke="#222327" stroke-width="15" stroke-linecap="round" stroke-linejoin="round"/>
<path id="Vector_30" d="M1015.95 687.05L991 731.37L776.11 516.46L854.77 525.87L1015.95 687.05Z" fill="#222327" stroke="#222327" stroke-width="15" stroke-linecap="round" stroke-linejoin="round"/>
<path id="Vector_31" d="M991 731.37L950.57 742.2L764.14 555.8L763.76 555.89L763.74 555.8L735.34 527.39L776.11 516.46L991 731.37Z" fill="#222327" stroke="#222327" stroke-width="15" stroke-linecap="round" stroke-linejoin="round"/>
</g>
<path id="Vector_32" d="M854.39 223.01L854.38 222.91" stroke="#222327" stroke-width="15" stroke-linecap="round" stroke-linejoin="round"/>
</g>
<g id="Group_6">
<path id="Vector_33" d="M459.02 676.18L391.53 928.01L301.57 1263.79L8.02002 1342.45L165.2 755.86L207.83 744.31L459.02 676.18Z" fill="#222327" stroke="#222327" stroke-width="5" stroke-linecap="round" stroke-linejoin="round"/>
<path id="Vector_34" d="M301.57 1263.79L8.02002 1342.47V1342.45L301.57 1263.79Z" fill="white" stroke="#222327" stroke-width="5" stroke-linecap="round" stroke-linejoin="round"/>
<path id="Vector_35" d="M731.37 1693.59L437.8 1772.25L8.02002 1342.47L301.57 1263.79L731.37 1693.59Z" fill="#222327" stroke="#222327" stroke-width="5" stroke-linecap="round" stroke-linejoin="round"/>
<path id="Vector_36" d="M301.57 1263.79L8.02 1342.47L8 1342.45H8.02L301.57 1263.79Z" fill="white" stroke="#222327" stroke-width="5" stroke-linecap="round" stroke-linejoin="round"/>
<path id="Vector_37" d="M888.42 1107.5L731.37 1693.59L301.57 1263.79L391.53 928.01L391.99 927.89L459.34 676.5L642.71 860.71H642.73L642.81 860.79L856.96 1075.91L888.42 1107.5Z" fill="white" stroke="#222327" stroke-width="5" stroke-linecap="round" stroke-linejoin="round"/>
<g id="Group_7">
<path id="Vector_38" d="M548.87 340.89L481.04 594L470.19 634.46L176.64 713.11L255.3 419.55L295.75 408.71L548.87 340.89Z" fill="#222327" stroke="#222327" stroke-width="5" stroke-linecap="round" stroke-linejoin="round"/>
<path id="Vector_39" d="M470.59 634.51L470.51 634.78L470.19 634.46L470.59 634.51Z" fill="white" stroke="#222327" stroke-width="5" stroke-linecap="round" stroke-linejoin="round"/>
<path id="Vector_40" d="M550.28 342.31V342.33L550.19 342.74L550.09 343.08L482.59 595L482.16 595.12L481.04 594L548.86 340.89L550.28 342.31Z" fill="white" stroke="#222327" stroke-width="5" stroke-linecap="round" stroke-linejoin="round"/>
<path id="Vector_41" d="M550.19 342.74L548.87 340.89" stroke="#222327" stroke-width="5" stroke-linecap="round" stroke-linejoin="round"/>
<path id="Vector_42" d="M470.51 634.78L459.34 676.5L459.02 676.18L207.83 744.31L176.64 713.11L470.19 634.46L470.51 634.78Z" fill="white" stroke="#222327" stroke-width="5" stroke-linecap="round" stroke-linejoin="round"/>
</g>
<g id="Group_8">
<path id="Vector_43" d="M710.02 805.05L708.94 806.94V806.96L685.85 848L685.1 849.35L470.51 634.78L470.58 634.51L528.92 641.48L548.86 643.87L699.72 794.74L710.02 805.05Z" fill="#222327" stroke="#222327" stroke-width="5" stroke-linecap="round" stroke-linejoin="round"/>
<path id="Vector_44" d="M685.1 849.35L642.73 860.71H642.71L459.34 676.5L470.51 634.78L685.1 849.35Z" fill="#222327" stroke="#222327" stroke-width="5" stroke-linecap="round" stroke-linejoin="round"/>
<path id="Vector_45" d="M685.86 848L685.5 849.35L642.81 860.79L642.73 860.71L685.1 849.35L685.86 848Z" fill="white" stroke="#222327" stroke-width="5" stroke-linecap="round" stroke-linejoin="round"/>
<path id="Vector_46" d="M764.15 555.8L763.91 556.65L763.77 555.89L764.15 555.8Z" fill="white" stroke="#222327" stroke-width="5" stroke-linecap="round" stroke-linejoin="round"/>
<path id="Vector_47" d="M823.15 638.6L783.38 787.02L764.15 858.76L685.49 849.35L685.85 848L708.94 806.96V806.94L710.02 805.05L769.02 584.87L763.91 556.69V556.65L764.15 555.8L823.15 638.6Z" fill="#222327" stroke="#222327" stroke-width="5" stroke-linecap="round" stroke-linejoin="round"/>
<path id="Vector_48" d="M925.33 1019.94L900.41 1064.26L685.49 849.35L764.15 858.76L925.33 1019.94Z" fill="#222327" stroke="#222327" stroke-width="5" stroke-linecap="round" stroke-linejoin="round"/>
<path id="Vector_49" d="M900.41 1064.26L856.96 1075.91L642.81 860.79L685.5 849.35L900.41 1064.26Z" fill="#222327" stroke="#222327" stroke-width="5" stroke-linecap="round" stroke-linejoin="round"/>
</g>
<g id="Group_9">
<path id="Vector_50" d="M639.47 8L560.82 301.57L267.27 380.23L345.93 86.66L639.47 8Z" fill="#222327" stroke="#222327" stroke-width="5" stroke-linecap="round" stroke-linejoin="round"/>
<path id="Vector_51" d="M561.2 301.61L561.14 301.89L560.82 301.57L561.2 301.61Z" fill="white" stroke="#222327" stroke-width="5" stroke-linecap="round" stroke-linejoin="round"/>
<path id="Vector_52" d="M859.65 251.98L800.65 472.16L790.35 461.86L639.47 310.98L648.24 278.25L698.47 90.8L639.47 8L854.38 222.91L854.4 223.01L854.53 223.78L854.4 223.7L859.65 251.98Z" fill="white" stroke="#222327" stroke-width="5" stroke-linecap="round" stroke-linejoin="round"/>
<path id="Vector_53" d="M561.14 301.89L550.29 342.31L548.87 340.89L295.75 408.71L267.27 380.23L560.82 301.57L561.14 301.89Z" fill="white" stroke="#222327" stroke-width="5" stroke-linecap="round" stroke-linejoin="round"/>
</g>
<g id="Group_10">
<path id="Vector_54" d="M698.47 90.8L648.24 278.25L639.47 310.98L561.19 301.61L560.81 301.57L639.47 8L698.47 90.8Z" fill="#222327" stroke="#222327" stroke-width="5" stroke-linecap="round" stroke-linejoin="round"/>
<path id="Vector_55" d="M769.02 584.87L710.02 805.05L699.72 794.74L548.86 643.87L557.63 611.14L568.07 572.2L568.09 572.09L607.84 423.69L550.19 342.74L550.28 342.33L735.27 527.29L735.34 527.39L763.75 555.8L763.77 555.89L763.91 556.65V556.69L769.02 584.87Z" fill="white" stroke="#222327" stroke-width="5" stroke-linecap="round" stroke-linejoin="round"/>
<path id="Vector_56" d="M607.84 423.69L568.09 572.09L568.07 572.2L557.63 611.14L548.86 643.87L528.92 641.48L470.58 634.51L470.19 634.45L481.04 594L481.97 594.61L549.56 342.35L550.09 343.08L607.84 423.69Z" fill="#222327" stroke="#222327" stroke-width="5" stroke-linecap="round" stroke-linejoin="round"/>
<path id="Vector_57" d="M800.65 472.16L776.48 515.11L775.72 516.46L561.14 301.89L561.19 301.61L639.47 310.98L790.35 461.86L800.65 472.16Z" fill="#222327" stroke="#222327" stroke-width="5" stroke-linecap="round" stroke-linejoin="round"/>
<path id="Vector_58" d="M775.72 516.46L735.27 527.29L550.28 342.33V342.31L561.14 301.89L775.72 516.46Z" fill="#222327" stroke="#222327" stroke-width="5" stroke-linecap="round" stroke-linejoin="round"/>
<path id="Vector_59" d="M776.48 515.11L776.12 516.46L735.34 527.39L735.27 527.29L775.72 516.46L776.48 515.11Z" fill="white" stroke="#222327" stroke-width="5" stroke-linecap="round" stroke-linejoin="round"/>
<path id="Vector_60" d="M854.78 222.91L854.53 223.78L854.4 223.01L854.78 222.91Z" fill="white" stroke="#222327" stroke-width="5" stroke-linecap="round" stroke-linejoin="round"/>
<path id="Vector_61" d="M913.78 305.72L854.78 525.87L776.12 516.46L776.48 515.11L800.65 472.16L859.65 251.98L854.53 223.8V223.78L854.78 222.91L913.78 305.72Z" fill="#222327" stroke="#222327" stroke-width="5" stroke-linecap="round" stroke-linejoin="round"/>
<path id="Vector_62" d="M1074.94 466.87L1015.96 687.05L854.78 525.87L913.78 305.72L854.78 222.91L1069.67 437.8L1074.94 466.87Z" fill="white" stroke="#222327" stroke-width="5" stroke-linecap="round" stroke-linejoin="round"/>
<path id="Vector_63" d="M984.33 799.78L925.33 1019.94L764.15 858.76L783.38 787.02L823.15 638.6L764.15 555.8L950.58 742.2L979.06 770.69L984.33 799.78Z" fill="white" stroke="#222327" stroke-width="5" stroke-linecap="round" stroke-linejoin="round"/>
<path id="Vector_64" d="M1015.96 687.05L991.01 731.37L776.12 516.46L854.78 525.87L1015.96 687.05Z" fill="#222327" stroke="#222327" stroke-width="5" stroke-linecap="round" stroke-linejoin="round"/>
<path id="Vector_65" d="M991.01 731.37L950.58 742.2L764.15 555.8L763.77 555.89L763.75 555.8L735.34 527.39L776.12 516.46L991.01 731.37Z" fill="#222327" stroke="#222327" stroke-width="5" stroke-linecap="round" stroke-linejoin="round"/>
</g>
<path id="Vector_66" d="M854.4 223.01L854.38 222.91" stroke="#222327" stroke-width="5" stroke-linecap="round" stroke-linejoin="round"/>
</g>
</g>
</svg>
